<svg width="117" height="46" viewBox="0 0 117 46" fill="none" xmlns="http://www.w3.org/2000/svg">
<rect x="0.5" y="1.34427" width="115.553" height="43.6787" rx="21.8394" stroke="white"/>
<path d="M22.618 27H15.65V18.29H22.618V19.551H17.054V21.995H22.423V23.243H17.054V25.739H22.618V27ZM25.1155 27H23.7115V20.539H24.9985V22.541H25.0895C25.1935 21.943 25.4752 21.4403 25.9345 21.033C26.3939 20.617 27.0092 20.409 27.7805 20.409C28.6385 20.409 29.2972 20.6647 29.7565 21.176C30.2245 21.6787 30.4585 22.3243 30.4585 23.113V27H29.0545V23.49C29.0545 22.8747 28.9029 22.4197 28.5995 22.125C28.3049 21.8217 27.8282 21.67 27.1695 21.67C25.8002 21.67 25.1155 22.3807 25.1155 23.802V27ZM36.9863 27.13C35.9463 27.13 35.1403 26.9307 34.5683 26.532C34.0049 26.1333 33.7233 25.5613 33.7233 24.816V24.777H35.1273V24.881C35.1273 25.297 35.2659 25.5873 35.5433 25.752C35.8206 25.9167 36.3016 25.999 36.9863 25.999C37.6016 25.999 38.0263 25.934 38.2603 25.804C38.5029 25.674 38.6243 25.4617 38.6243 25.167C38.6243 24.907 38.5333 24.7207 38.3513 24.608C38.1779 24.4953 37.8573 24.4043 37.3893 24.335L35.6213 24.101C34.3126 23.9363 33.6583 23.3513 33.6583 22.346C33.6583 21.7653 33.9183 21.2973 34.4383 20.942C34.9583 20.5867 35.7036 20.409 36.6743 20.409C37.6796 20.409 38.4596 20.6083 39.0143 21.007C39.5689 21.4057 39.8462 21.982 39.8462 22.736V22.775H38.4553V22.697C38.4553 22.2897 38.3209 21.995 38.0523 21.813C37.7923 21.6223 37.3199 21.527 36.6353 21.527C36.0546 21.527 35.6429 21.5963 35.4003 21.735C35.1576 21.865 35.0363 22.086 35.0363 22.398C35.0363 22.6493 35.1186 22.8357 35.2833 22.957C35.4566 23.0697 35.7859 23.1563 36.2713 23.217L37.7663 23.425C38.5376 23.5203 39.1009 23.711 39.4563 23.997C39.8203 24.2743 40.0023 24.6773 40.0023 25.206C40.0023 25.804 39.7293 26.2763 39.1833 26.623C38.6373 26.961 37.9049 27.13 36.9863 27.13ZM42.9132 27.13C42.2372 27.13 41.7042 26.9827 41.3142 26.688C40.9242 26.3847 40.7292 25.9687 40.7292 25.44C40.7292 24.4867 41.4226 23.932 42.8092 23.776L45.7472 23.464V23.087C45.7472 22.5583 45.6172 22.1857 45.3572 21.969C45.1059 21.7523 44.6682 21.644 44.0442 21.644C43.4376 21.644 42.9869 21.7523 42.6922 21.969C42.4062 22.177 42.2632 22.515 42.2632 22.983V23.035H40.8722V22.983C40.8722 22.229 41.1669 21.6137 41.7562 21.137C42.3456 20.6517 43.1429 20.409 44.1482 20.409C45.1362 20.409 45.8772 20.6517 46.3712 21.137C46.8739 21.6137 47.1252 22.2593 47.1252 23.074V27H45.8382V25.388H45.7472C45.5739 25.934 45.2402 26.363 44.7462 26.675C44.2522 26.9783 43.6412 27.13 42.9132 27.13ZM42.1332 25.349C42.1332 25.8603 42.5189 26.116 43.2902 26.116C44.0529 26.116 44.6509 25.9687 45.0842 25.674C45.5262 25.3707 45.7472 24.9113 45.7472 24.296L43.2122 24.582C42.8309 24.634 42.5536 24.7163 42.3802 24.829C42.2156 24.933 42.1332 25.1063 42.1332 25.349ZM52.5255 27H50.8095L47.7935 20.539H49.3405L51.6415 25.635H51.7455L54.0465 20.539H55.5675L52.5255 27ZM62.1897 26.207C61.531 26.8223 60.6644 27.13 59.5897 27.13C58.515 27.13 57.6484 26.8223 56.9897 26.207C56.331 25.583 56.0017 24.7727 56.0017 23.776C56.0017 22.7707 56.331 21.9603 56.9897 21.345C57.6484 20.721 58.515 20.409 59.5897 20.409C60.6644 20.409 61.531 20.721 62.1897 21.345C62.857 21.9603 63.1907 22.7707 63.1907 23.776C63.1907 24.7727 62.857 25.583 62.1897 26.207ZM59.5897 25.882C60.361 25.882 60.9244 25.7087 61.2797 25.362C61.635 25.0067 61.8127 24.478 61.8127 23.776C61.8127 23.074 61.635 22.5453 61.2797 22.19C60.9244 21.826 60.361 21.644 59.5897 21.644C58.1164 21.644 57.3797 22.3547 57.3797 23.776C57.3797 24.478 57.5574 25.0067 57.9127 25.362C58.268 25.7087 58.827 25.882 59.5897 25.882ZM65.6136 19.785H64.2096V18.29H65.6136V19.785ZM65.6136 27H64.2096V20.539H65.6136V27ZM68.3177 27H66.9137V20.539H68.2007V22.281H68.2917C68.3957 21.7263 68.634 21.2757 69.0067 20.929C69.3793 20.5823 69.882 20.409 70.5147 20.409C71.208 20.409 71.7323 20.6257 72.0877 21.059C72.443 21.4837 72.6207 22.0253 72.6207 22.684V23.529H71.2297V22.957C71.2297 22.489 71.1213 22.1467 70.9047 21.93C70.6967 21.7133 70.3543 21.605 69.8777 21.605C69.3317 21.605 68.933 21.7523 68.6817 22.047C68.439 22.3417 68.3177 22.7837 68.3177 23.373V27ZM77.1282 29.21H75.7242V20.539H77.0112V22.333H77.1282C77.2582 21.7263 77.5529 21.254 78.0122 20.916C78.4716 20.578 79.0739 20.409 79.8192 20.409C80.8072 20.409 81.5742 20.7167 82.1202 21.332C82.6749 21.9387 82.9522 22.7533 82.9522 23.776C82.9522 24.7987 82.6792 25.6133 82.1332 26.22C81.5872 26.8267 80.8202 27.13 79.8322 27.13C79.1129 27.13 78.5236 26.9567 78.0642 26.61C77.6049 26.2633 77.3102 25.7867 77.1802 25.18H77.1282V29.21ZM77.1282 23.88C77.1282 24.53 77.3232 25.024 77.7132 25.362C78.1032 25.6913 78.6492 25.856 79.3512 25.856C80.0792 25.856 80.6252 25.6957 80.9892 25.375C81.3619 25.0543 81.5482 24.5213 81.5482 23.776C81.5482 23.0307 81.3619 22.4977 80.9892 22.177C80.6252 21.8563 80.0879 21.696 79.3772 21.696C77.8779 21.696 77.1282 22.385 77.1282 23.763V23.88ZM85.3294 27H83.9254V18.29H85.3294V27ZM89.3205 27.13C88.4452 27.13 87.7735 26.8787 87.3055 26.376C86.8462 25.8647 86.6165 25.2147 86.6165 24.426V20.539H88.0075V24.049C88.0075 24.6643 88.1592 25.1237 88.4625 25.427C88.7745 25.7217 89.2642 25.869 89.9315 25.869C91.3268 25.869 92.0245 25.1583 92.0245 23.737V20.539H93.4155V27H92.1285V24.998H92.0505C91.9378 25.6047 91.6475 26.1117 91.1795 26.519C90.7202 26.9263 90.1005 27.13 89.3205 27.13ZM97.746 27.13C96.706 27.13 95.9 26.9307 95.328 26.532C94.7647 26.1333 94.483 25.5613 94.483 24.816V24.777H95.887V24.881C95.887 25.297 96.0257 25.5873 96.303 25.752C96.5803 25.9167 97.0613 25.999 97.746 25.999C98.3613 25.999 98.786 25.934 99.02 25.804C99.2627 25.674 99.384 25.4617 99.384 25.167C99.384 24.907 99.293 24.7207 99.111 24.608C98.9377 24.4953 98.617 24.4043 98.149 24.335L96.381 24.101C95.0723 23.9363 94.418 23.3513 94.418 22.346C94.418 21.7653 94.678 21.2973 95.198 20.942C95.718 20.5867 96.4633 20.409 97.434 20.409C98.4393 20.409 99.2193 20.6083 99.774 21.007C100.329 21.4057 100.606 21.982 100.606 22.736V22.775H99.215V22.697C99.215 22.2897 99.0807 21.995 98.812 21.813C98.552 21.6223 98.0797 21.527 97.395 21.527C96.8143 21.527 96.4027 21.5963 96.16 21.735C95.9173 21.865 95.796 22.086 95.796 22.398C95.796 22.6493 95.8783 22.8357 96.043 22.957C96.2163 23.0697 96.5457 23.1563 97.031 23.217L98.526 23.425C99.2973 23.5203 99.8607 23.711 100.216 23.997C100.58 24.2743 100.762 24.6773 100.762 25.206C100.762 25.804 100.489 26.2763 99.943 26.623C99.397 26.961 98.6647 27.13 97.746 27.13Z" fill="white"/>
</svg>
