<svg width="6" height="7" viewBox="0 0 6 7" fill="none" xmlns="http://www.w3.org/2000/svg">
<path d="M1.6086 4.06647C1.87542 3.82515 2.18952 3.39618 2.18952 3.39618H2.77045C2.77045 3.39618 2.35821 4.08149 1.96609 4.42396C1.56483 4.77442 0.80425 5.13894 0.80425 5.13894L0.536133 4.73677C0.536133 4.73677 1.24899 4.39172 1.6086 4.06647Z" fill="#1C1D20"/>
<path d="M3.84314 4.42399C4.10996 4.18267 4.46875 3.57495 4.46875 3.57495L4.82624 3.93244C4.82624 3.93244 4.59275 4.43901 4.20063 4.78148C3.79937 5.13194 3.30691 5.38971 3.03879 5.54115C2.80144 5.67521 1.92163 6.07738 1.92163 6.07738H0.804477L0.625732 5.58583H1.6982C1.6982 5.58583 2.45787 5.31388 2.77067 5.13897C3.09033 4.96023 3.48353 4.74923 3.84314 4.42399Z" fill="#1C1D20"/>
<rect x="1.698" width="0.536235" height="1.34059" fill="#1C1D20"/>
<rect x="3.57495" width="0.536235" height="1.34059" fill="#1C1D20"/>
<rect y="0.983154" width="0.536235" height="5.80921" transform="rotate(-90 0 0.983154)" fill="#1C1D20"/>
<rect x="0.804443" y="1.69806" width="0.536235" height="4.28988" transform="rotate(-90 0.804443 1.69806)" fill="#1C1D20"/>
<rect x="0.804443" y="2.68118" width="0.536235" height="4.28988" transform="rotate(-90 0.804443 2.68118)" fill="#1C1D20"/>
<rect x="0.0893555" y="3.39618" width="0.536235" height="5.71984" transform="rotate(-90 0.0893555 3.39618)" fill="#1C1D20"/>
<rect x="2.14502" y="4.2005" width="0.536235" height="2.32369" transform="rotate(-90 2.14502 4.2005)" fill="#1C1D20"/>
<rect x="1.67993" y="4.58209" width="0.536235" height="1.50385" transform="rotate(-59.8885 1.67993 4.58209)" fill="#1C1D20"/>
<rect x="0.804443" y="1.42999" width="0.536235" height="1.07247" fill="#1C1D20"/>
<rect x="2.05566" y="1.42999" width="0.536235" height="1.07247" fill="#1C1D20"/>
<rect x="3.30688" y="1.42999" width="0.536235" height="1.07247" fill="#1C1D20"/>
<rect x="5.27295" y="3.21738" width="0.536235" height="0.804353" fill="#1C1D20"/>
<rect x="0.0893555" y="3.21738" width="0.536235" height="0.804353" fill="#1C1D20"/>
<rect x="4.55811" y="1.51935" width="0.536235" height="0.804353" fill="#1C1D20"/>
</svg>
