<svg width="100" height="50" viewBox="0 0 100 50" fill="none" xmlns="http://www.w3.org/2000/svg">
<path d="M23.4627 49.4697L21.9453 44.3132H22.9827L23.9931 48.1H24.0435L25.0574 44.3132H26.0947L27.1018 48.0832H27.1522L28.156 44.3132H29.1933L27.6793 49.4697H26.6553L25.6079 45.7467H25.5307L24.4833 49.4697H23.4627Z" fill="#1C1D20"/>
<path d="M32.2114 49.5738C31.7033 49.5738 31.2658 49.4652 30.8987 49.2482C30.5339 49.0288 30.2519 48.7211 30.0527 48.3249C29.8558 47.9266 29.7573 47.4599 29.7573 46.925C29.7573 46.3968 29.8558 45.9313 30.0527 45.5285C30.2519 45.1256 30.5294 44.8112 30.8853 44.5851C31.2434 44.3591 31.6619 44.2461 32.1409 44.2461C32.4318 44.2461 32.7138 44.2942 32.9868 44.3904C33.2599 44.4867 33.505 44.6377 33.7221 44.8436C33.9392 45.0495 34.1104 45.317 34.2357 45.646C34.361 45.9727 34.4237 46.37 34.4237 46.8377V47.1936H30.3247V46.4416H33.4401C33.4401 46.1775 33.3863 45.9436 33.2789 45.74C33.1715 45.5341 33.0204 45.3718 32.8257 45.2532C32.6332 45.1346 32.4072 45.0753 32.1476 45.0753C31.8656 45.0753 31.6194 45.1446 31.409 45.2834C31.2009 45.4199 31.0397 45.599 30.9256 45.8205C30.8137 46.0399 30.7577 46.2782 30.7577 46.5356V47.1231C30.7577 47.4678 30.8182 47.761 30.939 48.0027C31.0621 48.2444 31.2333 48.429 31.4527 48.5566C31.672 48.6819 31.9282 48.7446 32.2214 48.7446C32.4117 48.7446 32.5851 48.7177 32.7418 48.664C32.8984 48.6081 33.0338 48.5253 33.148 48.4156C33.2621 48.3059 33.3494 48.1705 33.4098 48.0094L34.3599 48.1806C34.2838 48.4604 34.1473 48.7054 33.9503 48.9158C33.7556 49.1239 33.5106 49.2862 33.2151 49.4026C32.9219 49.5167 32.5874 49.5738 32.2114 49.5738Z" fill="#1C1D20"/>
<path d="M35.618 49.4697V42.5944H36.6218V45.1491H36.6822C36.7404 45.0417 36.8243 44.9175 36.934 44.7765C37.0436 44.6355 37.1958 44.5124 37.3905 44.4072C37.5853 44.2998 37.8426 44.2461 38.1627 44.2461C38.579 44.2461 38.9505 44.3512 39.2772 44.5616C39.604 44.772 39.8603 45.0753 40.046 45.4714C40.234 45.8675 40.328 46.3443 40.328 46.9015C40.328 47.4588 40.2351 47.9366 40.0494 48.335C39.8636 48.7312 39.6085 49.0367 39.284 49.2515C38.9594 49.4641 38.589 49.5704 38.1727 49.5704C37.8594 49.5704 37.6032 49.5178 37.404 49.4127C37.207 49.3075 37.0526 49.1844 36.9407 49.0434C36.8288 48.9024 36.7426 48.777 36.6822 48.6674H36.5983V49.4697H35.618ZM36.6016 46.8915C36.6016 47.254 36.6542 47.5718 36.7594 47.8449C36.8646 48.1179 37.0168 48.3317 37.216 48.4861C37.4152 48.6383 37.6591 48.7144 37.9478 48.7144C38.2477 48.7144 38.4984 48.6349 38.6998 48.476C38.9012 48.3149 39.0534 48.0967 39.1564 47.8214C39.2616 47.5461 39.3142 47.2361 39.3142 46.8915C39.3142 46.5513 39.2627 46.2458 39.1597 45.975C39.059 45.7042 38.9068 45.4904 38.7032 45.3338C38.5017 45.1771 38.25 45.0988 37.9478 45.0988C37.6569 45.0988 37.4107 45.1737 37.2093 45.3237C37.0101 45.4736 36.859 45.6829 36.756 45.9515C36.6531 46.22 36.6016 46.5334 36.6016 46.8915Z" fill="#1C1D20"/>
<path d="M37.2009 0.175811V10.98H42.603V5.57788H54.0824V40.3537H59.4845V5.57788H62.8608C63.8737 5.57788 64.8411 6.41588 65.8994 7.26603C66.9921 8.1438 67.5151 8.78159 68.2628 9.96706C68.9557 11.0654 69.6134 13.0057 69.6134 13.0057V40.3537H75.6907V12.3305C75.6907 12.3305 75.2338 10.2135 74.6778 8.95418C73.9097 7.21461 73.2557 6.30993 71.9768 4.90262C70.7164 3.51576 69.8647 2.83647 68.2628 1.86396C66.901 1.03717 65.5618 0.57141 64.5489 0.175811C63.536 -0.219787 37.2009 0.175811 37.2009 0.175811Z" fill="#1C1D20"/>
<path d="M6.47663 0.851074H0.399302C0.399302 0.851074 -0.499128 6.72381 0.399302 10.3047C0.846219 12.086 1.16083 13.1083 2.08745 14.6939C2.84598 15.9918 3.38783 16.6695 4.45086 17.7325C5.51388 18.7956 6.17041 19.3748 7.48952 20.096C8.95294 20.896 11.5411 21.4465 11.5411 21.4465V15.7068C11.5411 15.7068 10.2598 15.1715 9.5153 14.6939C8.64852 14.1378 8.09563 13.8383 7.48952 13.0057C6.82647 12.095 6.78322 11.3887 6.47663 10.3047C5.47188 6.75218 6.47663 0.851074 6.47663 0.851074Z" fill="#1C1D20"/>
<path d="M21.3325 0.851074H27.4098C27.4098 0.851074 28.3082 6.72381 27.4098 10.3047C26.9629 12.086 26.6483 13.1083 25.7216 14.6939C24.9631 15.9918 24.4213 16.6695 23.3582 17.7325C22.2952 18.7956 21.6387 19.3748 20.3196 20.096C18.8561 20.896 16.268 21.4465 16.268 21.4465V15.7068C16.268 15.7068 17.5493 15.1715 18.2938 14.6939C19.1606 14.1378 19.7135 13.8383 20.3196 13.0057C20.9826 12.095 21.0259 11.3887 21.3325 10.3047C22.3372 6.75218 21.3325 0.851074 21.3325 0.851074Z" fill="#1C1D20"/>
<path d="M10.8657 15.4277C10.8657 15.4277 12.6385 15.9494 13.8052 15.9624C15.0482 15.9763 16.9431 15.4277 16.9431 15.4277V49.4697H10.8657V15.4277Z" fill="#1C1D20"/>
<rect x="29.0977" y="8.27893" width="6.07733" height="30.3866" fill="#1C1D20"/>
<rect x="21.6699" y="39.3408" width="6.07733" height="16.8815" transform="rotate(-90 21.6699 39.3408)" fill="#1C1D20"/>
<path d="M41.2523 32.5883C40.2631 33.0396 38.5513 33.2635 38.5513 33.2635V39.3409C38.5513 39.3409 40.6513 38.844 41.9276 38.328C43.0209 37.8859 43.6234 37.5943 44.6286 36.9775C45.9099 36.1912 46.6078 35.6806 47.6673 34.6141C48.393 33.8835 48.7212 33.3996 49.3554 32.5883C49.7614 32.0689 50.0245 31.8003 50.3683 31.2378C50.6758 30.7346 50.8113 30.4292 51.0436 29.8872C51.3721 29.1208 51.519 28.6711 51.7188 27.8615C51.911 27.0828 52.0564 25.8357 52.0564 25.8357V13.681H45.9791V25.8357C45.9791 25.8357 45.8839 27.0969 45.6415 27.8615C45.3742 28.7046 45.1556 29.1769 44.6286 29.8872C44.1842 30.4862 43.8492 30.758 43.2781 31.2378C42.55 31.8493 42.1173 32.1936 41.2523 32.5883Z" fill="#1C1D20"/>
<path d="M80.08 36.6397C78.5914 34.8829 78.0542 31.2377 78.0542 31.2377V22.1217V11.6552C78.0542 11.6552 79.0184 8.44547 80.4176 6.92834C81.7821 5.44884 82.9086 4.89631 84.8068 4.22731C86.5654 3.60749 87.6703 3.48129 89.5336 3.55205C91.0067 3.60799 91.8566 3.739 93.2475 4.22731C94.3603 4.61795 94.9789 4.90654 95.9486 5.57782C98.1167 7.07886 100 10.9799 100 10.9799L95.9486 12.668C95.9486 12.668 94.6758 10.6641 93.5852 9.62938C92.9727 9.04828 92.6822 8.92671 91.897 8.61651C90.916 8.22894 89.8712 7.94125 89.196 7.94125C88.1831 7.94125 87.2624 8.18408 86.1573 8.61651C85.1983 8.99176 84.5839 9.29176 84.1315 9.96702C83.5198 10.8801 83.3412 12.668 83.3412 12.668V15.0314V20.2724H84.1315V23.9652H83.3412V28.8743V31.5753C83.3412 31.5753 83.4791 33.2165 84.1315 33.9387C84.7245 34.595 85.316 34.6786 86.1573 34.9516C87.293 35.32 88.0036 35.2273 89.196 35.2892C90.3883 35.3512 91.5594 35.085 91.897 34.9516C92.6822 34.6414 92.9624 34.5088 93.5852 33.9387C94.619 32.9923 95.6109 31.2377 95.6109 31.2377L100 31.5753C100 31.5753 98.4551 36.5461 95.9486 38.3279C94.9873 39.0112 94.3752 39.3333 93.2475 39.6784C91.8549 40.1046 90.9897 40.3255 89.5336 40.3537C87.6833 40.3895 86.5622 40.2643 84.8068 39.6784C82.8293 39.0184 81.4277 38.2303 80.08 36.6397Z" fill="#1C1D20"/>
<rect x="91.2217" y="20.4336" width="2.70104" height="3.37629" fill="#1C1D20"/>
<path d="M86.0776 22.4743C86.3444 22.233 86.6585 21.804 86.6585 21.804H87.2394C87.2394 21.804 86.8272 22.4893 86.4351 22.8318C86.0338 23.1823 85.2732 23.5468 85.2732 23.5468L85.0051 23.1446C85.0051 23.1446 85.718 22.7996 86.0776 22.4743Z" fill="#1C1D20"/>
<path d="M88.3121 22.8318C88.579 22.5905 88.9377 21.9828 88.9377 21.9828L89.2952 22.3403C89.2952 22.3403 89.0617 22.8468 88.6696 23.1893C88.2684 23.5398 87.7759 23.7975 87.5078 23.949C87.2704 24.083 86.3906 24.4852 86.3906 24.4852H85.2735L85.0947 23.9937H86.1672C86.1672 23.9937 86.9269 23.7217 87.2397 23.5468C87.5593 23.3681 87.9525 23.1571 88.3121 22.8318Z" fill="#1C1D20"/>
<rect x="86.167" y="18.4078" width="0.536235" height="1.34059" fill="#1C1D20"/>
<rect x="88.0439" y="18.4078" width="0.536235" height="1.34059" fill="#1C1D20"/>
<rect x="84.469" y="19.391" width="0.536235" height="5.80921" transform="rotate(-90 84.469 19.391)" fill="#1C1D20"/>
<rect x="85.2734" y="20.1059" width="0.536235" height="4.28988" transform="rotate(-90 85.2734 20.1059)" fill="#1C1D20"/>
<rect x="85.2734" y="21.089" width="0.536235" height="4.28988" transform="rotate(-90 85.2734 21.089)" fill="#1C1D20"/>
<rect x="84.5583" y="21.804" width="0.536235" height="5.71984" transform="rotate(-90 84.5583 21.804)" fill="#1C1D20"/>
<rect x="86.614" y="22.6083" width="0.536235" height="2.32369" transform="rotate(-90 86.614 22.6083)" fill="#1C1D20"/>
<rect x="86.1489" y="22.9899" width="0.536235" height="1.50385" transform="rotate(-59.8885 86.1489 22.9899)" fill="#1C1D20"/>
<rect x="85.2734" y="19.8378" width="0.536235" height="1.07247" fill="#1C1D20"/>
<rect x="86.5247" y="19.8378" width="0.536235" height="1.07247" fill="#1C1D20"/>
<rect x="87.7759" y="19.8378" width="0.536235" height="1.07247" fill="#1C1D20"/>
<rect x="89.7419" y="21.6252" width="0.536235" height="0.804353" fill="#1C1D20"/>
<rect x="84.5583" y="21.6252" width="0.536235" height="0.804353" fill="#1C1D20"/>
<rect x="89.0271" y="19.9272" width="0.536235" height="0.804353" fill="#1C1D20"/>
</svg>
